<?xml version="1.0" encoding="utf-8"?>
<!-- Generator: Adobe Illustrator 22.0.0, SVG Export Plug-In . SVG Version: 6.00 Build 0)  -->
<svg version="1.1" id="Layer_1" xmlns="http://www.w3.org/2000/svg" xmlns:xlink="http://www.w3.org/1999/xlink" x="0px" y="0px"
	 viewBox="0 0 100 100" style="enable-background:new 0 0 100 100;" xml:space="preserve">
<style type="text/css">
	.st0{fill:#FFFFFF;}
	.st1{fill:#095279;}
</style>
<g>
	<path class="st0" d="M45,65.5C50.1,72,55,78.3,60,84.4c2.8,3.4,4.6,3,6-1.5C72.8,62.1,79.4,41.2,86,20.3c1.3-4.1-0.2-5.5-4.5-4.2
		c-6.5,2-13,4.1-19.5,6.1c-14.2,4.5-28.5,9-42.7,13.6c-4.8,1.6-5.3,3.3-1.6,6.2c6.2,5,12.4,9.9,18.8,15c12.1-9.6,24-19.1,35.8-28.5
		c0.4,0.4,0.7,0.8,1.1,1.1C64,41.6,54.5,53.5,45,65.5z"/>
	<path class="st1" d="M45,65.5C54.5,53.5,77.1,25,77.1,25S48.6,47.4,36.5,57.1c-6.4-5.1-12.6-9.9-18.8-15c-3.6-3-3.2-4.7,1.6-6.2
		c14.2-4.6,28.5-9.1,42.7-13.6c6.5-2.1,13-4.2,19.5-6.1c4.3-1.3,5.8,0.1,4.5,4.2C79.4,41.2,72.8,62.1,66.1,83
		c-1.4,4.4-3.3,4.9-6,1.5C55,78.3,50.1,72,45,65.5z"/>
</g>
</svg>
