<svg xmlns="http://www.w3.org/2000/svg" xmlns:xlink="http://www.w3.org/1999/xlink" width="29" height="28" viewBox="0 0 29 28"><defs><path id="r6t6a" d="M281.835 269.36l-.315 2.007a3.378 3.378 0 0 1 2.01 1.927h12.06a3.379 3.379 0 0 1 3.133-2.121 3.4 3.4 0 0 1 3.39 3.407c0 1.883-1.52 3.42-3.39 3.42-1.73 0-3.162-1.34-3.364-2.995h-11.6c-.202 1.654-1.633 2.995-3.364 2.995-1.869 0-3.39-1.541-3.39-3.424 0-1.686 1.22-3.09 2.817-3.365l.427-2.71-2.538-15.726-2.248-1.158a.858.858 0 0 1-.37-1.151.847.847 0 0 1 1.144-.372l2.631 1.355c.24.124.408.356.452.625l.63 3.908 23.253 1.446a.848.848 0 0 1 .637.354.862.862 0 0 1 .132.72l-2.695 10.22a.853.853 0 0 1-.822.638zm16.888 3.512a1.7 1.7 0 0 0-1.69 1.704 1.7 1.7 0 0 0 1.69 1.704 1.7 1.7 0 0 0 1.69-1.704 1.7 1.7 0 0 0-1.69-1.704zm-16.627 1.704c0-.94-.76-1.704-1.696-1.704-.935 0-1.695.764-1.695 1.704s.76 1.704 1.695 1.704 1.696-.765 1.696-1.704zm-.264-6.927h17.97l2.261-8.574-21.833-1.36z"/></defs><g><g clip-path="url(#clip-09C7ABF8-8370-4BD5-AB40-2176D90E18FE)" transform="translate(-275 -250)"><use xlink:href="#r6t6a"/></g></g></svg>