<?xml version="1.0"?>
<svg width="139.5" height="86.5" xmlns="http://www.w3.org/2000/svg" xmlns:svg="http://www.w3.org/2000/svg" xmlns:xlink="http://www.w3.org/1999/xlink" enable-background="new 0 0 139.5 86.5" version="1.1" xml:space="preserve">
 <style type="text/css">.st0{display:none;opacity:0.6;}
	.st1{fill:#ED251B;}
	.st2{fill:#FFFFFF;}
	.st3{fill:none;stroke:#FFFFFF;stroke-width:20;stroke-miterlimit:10;}
	.st4{enable-background:new    ;}
	.st5{fill:#666666;}</style>

 <g class="layer">
  <title>Layer 1</title>
  <g class="st0" id="svg_1">
   <image display="inline" height="8552" id="svg_2" transform="matrix(0.3978 0 0 0.3978 -292.7979 -236.7982)" width="11081" xlink:href="9F29B670.jpg"/>
  </g>
  <path class="st1" d="m15.1,64.4l0,11c0,0 0,1.2 -0.1,1.4c0,0.1 -0.3,0.9 -0.6,1.3c-0.2,0.5 -0.6,1.2 -0.7,1.4c-0.1,0.2 -0.3,0.7 -0.3,1c-0.1,0.2 -0.1,0.6 0.2,0.9c0,0 0.2,0.1 0.3,0.1s0.6,0 0.8,0l4.5,0l3.3,0l2.6,0c0,0 0.2,0 0.3,-0.1c0.2,0 0.2,0 0.3,-0.1s0.4,-0.2 0.4,-0.3c0,0 0.3,-0.3 0.4,-0.4s0.4,-0.5 0.5,-0.7s0.2,-0.4 0.3,-0.6c0.1,-0.2 0.2,-0.5 0.4,-1c0.2,-0.4 0.2,-0.8 0.3,-1s0.1,-0.4 0.1,-0.6c0,0 0,-0.2 0,-0.4l0,-0.6l0,-1.7l0,-0.5l0,-0.8c0,0 0,-1.5 0,-1.7s0,-2.8 0,-3c0,-0.3 0,-2.5 0,-2.8s0,-2.1 0,-2.4c0,-0.3 -0.1,-0.7 -0.1,-1c-0.1,-0.3 -0.3,-1.1 -0.3,-1.3c-0.1,-0.2 -0.4,-1.1 -0.7,-1.5c-0.2,-0.4 -0.7,-1.2 -1.1,-1.7c-0.3,-0.5 -0.9,-1.3 -1.2,-1.6c-0.3,-0.3 -0.8,-0.9 -1.1,-1.2s-0.9,-0.9 -1,-1s-0.7,-0.8 -0.9,-1c-0.2,-0.2 -0.3,-0.4 -0.4,-0.8c0,-0.2 -0.1,-0.3 0,-0.6c0,-0.2 0.1,-0.5 0.2,-0.8c0.1,-0.2 0.2,-0.3 0.8,-0.6c0.2,-0.1 0.7,-0.1 1.2,-0.1s1.1,0 2.6,0.2c0.4,0.1 1.4,0.2 2.5,0.7s0.7,0.3 1.1,0.5s1.4,0.7 2.2,1.3c0.8,0.6 0.8,0.6 1.4,1c0.5,0.4 1.3,1.1 1.6,1.3c0.3,0.3 1.1,1 1.8,1.8s1.2,1.4 1.7,2c0.4,0.6 1.3,1.7 1.7,2.3s1.1,1.6 1.6,2.3s1,1.5 1.4,2.3c0.5,0.8 1.5,2.6 1.7,2.9s1,1.9 1.4,2.6c0.3,0.7 1,1.8 1.3,2.5c0.3,0.6 0.7,1.3 1.1,2c0.3,0.6 0.7,1.3 1.1,1.8c0,0 0.6,0.9 0.9,1.2c0.3,0.4 0.7,0.8 1,1.1c0.3,0.3 0.5,0.5 0.7,0.7l0.9,0l0,0l1.2,0l2.6,0l4.6,0l4.4,0l3,0l-0.1,-0.1c0,0 -0.3,-0.3 -0.5,-0.6c-0.2,-0.2 -0.7,-0.7 -0.9,-0.9c-0.3,-0.3 -0.8,-0.8 -1,-1s-0.8,-0.9 -1.1,-1.2c-0.2,-0.3 -1.1,-1.3 -1.5,-1.8c0,0 -0.8,-1.1 -1.1,-1.4c-0.2,-0.3 -0.6,-0.9 -0.8,-1.1c-0.2,-0.3 -0.9,-1.5 -1,-1.7s-0.7,-1.3 -0.9,-1.6s-0.7,-1.3 -0.8,-1.5s-0.6,-1.1 -0.8,-1.5s-0.5,-1 -0.6,-1.2s-0.6,-1.1 -0.7,-1.4c-0.1,-0.3 -0.6,-1.1 -0.7,-1.3c-0.1,-0.2 -0.8,-1.4 -1,-1.6c-0.2,-0.3 -0.7,-1.2 -1,-1.7s-1.5,-2.2 -1.7,-2.5s-1.1,-1.6 -1.3,-1.8s-0.8,-1.1 -1,-1.4c-0.2,-0.3 -0.8,-1 -1,-1.3s-0.9,-1.1 -1.1,-1.4c-0.3,-0.3 -1,-1.2 -1.2,-1.4c-0.2,-0.3 -1.2,-1.4 -1.6,-1.7c-0.4,-0.4 -1.5,-1.5 -1.7,-1.7s-1,-0.9 -1.2,-1s-1.3,-1 -1.5,-1.2s-1.3,-0.9 -1.6,-1.1c-0.3,-0.2 -1.4,-0.8 -2.1,-1s-1.5,-0.6 -1.6,-0.7c-0.2,-0.1 -1,-0.4 -1.1,-0.5s-0.4,-0.1 -0.4,-0.1s0.6,-0.1 0.9,-0.2c0.3,-0.1 1.2,-0.4 1.6,-0.5s1.1,-0.4 1.8,-0.7c0.6,-0.3 1.5,-0.7 1.8,-0.9s1,-0.6 1.4,-0.9c0.4,-0.3 1.2,-0.9 1.8,-1.5c0.6,-0.5 0.9,-0.9 1.3,-1.3c0.4,-0.5 0.8,-1.1 1,-1.5c0.2,-0.4 0.6,-1 0.8,-1.4s0.6,-1.1 0.9,-1.7c0.3,-0.6 0.4,-0.9 0.5,-1.2c0.1,-0.3 0.5,-1 0.6,-1.3c0.1,-0.2 0.6,-1.4 0.9,-2.1s0.7,-1.8 1,-2.5s0.7,-1.7 0.8,-2.2c0.2,-0.5 0.4,-1.1 0.5,-1.4s0.6,-1.5 0.7,-1.9c0.1,-0.4 0.4,-1 0.5,-1.4s0.4,-1.2 0.7,-1.8c0.2,-0.5 0.3,-0.8 0.4,-1.1s0.3,-0.7 0.4,-1c0.1,-0.3 0.2,-0.5 0.3,-0.6s0.2,-0.3 0.3,-0.4c0.1,-0.1 0.2,-0.2 0.3,-0.3s0.3,-0.2 0.4,-0.3c0.1,-0.1 0.3,-0.1 0.4,-0.1c0.1,0 0.3,-0.1 0.4,-0.1c0.1,0 0.4,0 0.5,0s0.3,0.1 0.5,0.2c0.2,0.1 0.3,0.2 0.4,0.3c0.1,0.1 0.1,0.3 0.2,0.5c0,0.2 0.1,0.4 0,0.5c0,0 -0.1,0.3 -0.1,0.5c-0.1,0.2 -0.3,0.5 -0.4,0.7c-0.1,0.1 -0.3,0.5 -0.4,0.6c-0.1,0.1 -0.2,0.3 -0.3,0.4c-0.1,0.1 -0.3,0.3 -0.5,0.5c-0.1,0.2 -0.3,0.4 -0.5,0.6c-0.1,0.2 -0.2,0.3 -0.4,0.7c-0.1,0.3 -0.3,0.7 -0.3,0.9s-0.1,0.7 -0.1,1.1c0,0 0,0.6 0.1,0.9c0,0.1 0.2,0.5 0.3,0.7s0.3,0.5 0.5,0.7s0.5,0.5 0.8,0.7c0.4,0.2 0.5,0.3 0.6,0.4c0.3,0.1 1,0.3 1.4,0.4c0.4,0 0.8,0.1 1.1,0c0.3,0 0.7,-0.2 1,-0.3c0.3,-0.1 0.7,-0.3 1.1,-0.6c0.4,-0.3 0.7,-0.6 1,-1s0.4,-0.7 0.5,-0.9c0.1,-0.3 0.4,-1 0.5,-1.7c0.1,-0.7 0.2,-1.3 0.1,-1.7c0,-0.5 0,-0.8 -0.1,-1c0,-0.2 -0.2,-1 -0.3,-1.7c-0.2,-0.7 -0.3,-1.1 -0.5,-1.5c-0.1,-0.3 -0.3,-0.9 -0.5,-1.3c-0.2,-0.3 -0.5,-0.9 -0.8,-1.3c-0.3,-0.4 -0.8,-1 -1.1,-1.2c-0.3,-0.3 -0.8,-0.6 -1.2,-0.8c-0.4,-0.2 -1,-0.4 -1.4,-0.5s-1.2,-0.3 -2,-0.4c-0.6,-0.1 -1.4,-0.1 -1.7,-0.1c-0.4,0 -1.7,0.1 -2.3,0.2s-1.1,0.3 -1.5,0.4c-0.5,0.1 -1.8,0.5 -2.7,1c-1,0.4 -1.3,0.7 -1.7,1s-1.9,1.2 -2.7,1.9s-1.3,1.2 -2.2,2.4c-0.2,0.3 -0.7,1 -1.1,1.8c-0.4,0.8 -0.8,1.5 -1,1.9s-0.6,1.3 -0.7,1.6c-0.2,0.4 -0.5,1.3 -0.7,1.8s-0.7,1.9 -0.9,2.4s-0.6,1.5 -0.8,2s-0.7,1.9 -0.8,2.2c-0.1,0.3 -0.5,1.2 -0.6,1.5s-0.5,1 -0.7,1.5c-0.2,0.4 -0.4,0.9 -0.6,1.2c-0.2,0.3 -0.7,1.2 -0.9,1.5c-0.2,0.4 -0.4,0.6 -0.6,0.9c-0.2,0.3 -0.4,0.6 -0.8,1c-0.3,0.4 -0.7,0.8 -0.9,1c0,0 -0.4,0.4 -0.5,0.5c0,0 -0.1,0.1 -0.2,0.2c0,0 -0.1,0.1 -0.2,0.1c0,0 -0.4,0.2 -0.5,0.3s-0.6,0.3 -0.8,0.3c-0.1,0 -0.3,0.1 -0.4,0.1s-0.3,0.1 -0.4,0.1s-0.1,0 -0.2,-0.1c0,-0.1 -0.1,-0.2 -0.1,-0.3s-0.1,-0.3 -0.1,-0.4c0,-0.1 0,-0.4 0,-0.6s0,-0.9 0,-1.1c0,-0.2 0,-0.6 0,-0.8s0,-1.1 0,-1.3c0,-0.3 0.1,-1.4 0.1,-1.8c0,-0.3 0,-0.8 0,-1c0,-0.1 0,-1.3 0,-1.7c0,-0.4 0,-1.7 0,-1.9c0,-0.3 0,-0.7 0,-1.1c0,-0.5 0,-1 0,-1.2s0,-1.1 0,-1.4s0,-1 0,-1.3s0,-1 0,-1.3s0,-0.7 0,-0.8c0,-0.1 0,-1.1 0,-1.4c0,-0.3 0,-1.1 0,-1.5s0,-1 0,-1.2c0,-0.3 -0.1,-0.9 -0.1,-1.1c0,-0.2 -0.1,-1.1 -0.1,-1.4s-0.2,-1.2 -0.4,-1.7c-0.2,-0.5 -0.4,-1.3 -1,-1.8c-0.2,-0.2 -0.5,-0.5 -1.1,-0.6c-0.2,0 -1,0 -1,0l-6.6,0l-4.9,0c0,0 0.2,0.2 0.4,0.6c0.3,0.4 0.8,1.1 1.1,1.7c0.3,0.5 0.3,0.5 0.6,1.1c0.1,0.3 0.3,0.6 0.4,1.1c0,0 0,0.1 0,0.3s0,1.1 0,1.1l0,4.3l0,4.9l0,5.3l0,4.6l0,5.1l0,4.6c0,0 -0.9,0.4 -1.4,0.7s-1,0.6 -1.4,0.9c-0.3,0.2 -1.3,1 -1.8,1.5s-1.1,1.1 -1.3,1.4c-0.3,0.3 -1.5,1.7 -2.4,3.8c-0.2,0.4 -0.6,1.3 -0.9,2.5c-0.2,0.3 -0.3,1 -0.4,1.8c0,0.8 0,1.6 0.1,2.3s0.1,0.9 0.3,1.3c0.1,0.3 0.3,0.8 0.7,1.3c0.4,0.5 0.8,1 1.3,1.5s1.4,1.2 2.2,1.7s0.9,0.6 1.2,0.7s1.5,0.7 2.1,1c0.6,0.1 1.4,0.3 2.2,0.6z" id="svg_3"/>
  <g id="svg_4">
   <path class="st2" d="m15.5,42.3l0,-0.5c0,-10.1 0,-29.4 0,-29.8c0,-0.1 0,-0.2 0,-0.3c0,-0.6 0,-1 -0.2,-1.6c-0.2,-0.7 -1,-2 -1,-2l-0.3,-0.6l10.1,0l0,0c0.5,0.1 1,0.5 1.3,1.2c0.2,0.5 0.4,1.2 0.5,1.7l0,0.1c0.3,1.6 0.3,8.4 0.3,8.5s0,1.5 0,3c0,2 0.1,4.3 0.1,4.9c0,0.5 0,1.7 -0.1,3c0,1.8 -0.1,3.9 -0.1,4.4c0.1,1.4 0.5,1.8 0.6,1.9c0.7,0.5 1.4,0.6 3.5,-0.6c0.7,-0.4 2.6,-2.6 3.4,-4c0.1,-0.1 0.2,-0.3 0.3,-0.5c0.5,-0.9 1.5,-2.5 1.9,-3.6c0.2,-0.4 0.4,-1.1 0.7,-1.8c0.5,-1.3 1.1,-2.7 1.3,-3.2s0.5,-1.3 0.9,-2.3c0.2,-0.5 0.4,-1.1 0.7,-1.7c1.3,-3.5 3,-6 4,-7.1c0.6,-0.9 2.3,-2.4 3.6,-3.3c0.6,-0.3 2.5,-1.5 4.6,-2c1,-0.3 2.1,-0.4 3.2,-0.4c1.3,0 2.5,0.1 3.6,0.5l0,0c2.4,0.8 3.3,2.8 3.9,4.2l0,0c0.7,1.6 0.9,3.6 0.9,4.2l0,0c0,0.8 0,2.3 -1,3.7c-0.7,0.9 -1.6,1.4 -2.7,1.4c-0.4,0 -0.9,-0.1 -1.3,-0.2c-0.6,-0.2 -1.1,-0.5 -1.4,-1c-0.4,-0.5 -0.6,-1.1 -0.6,-1.8c0,-1.2 0.8,-2.1 1.4,-2.7c0.1,-0.2 0.3,-0.3 0.4,-0.4c0.1,-0.1 0.2,-0.2 0.2,-0.3c0.4,-0.5 0.8,-1 0.9,-2.1c0.2,-1.5 -0.9,-2.3 -0.9,-2.3l0,0c-1.3,-1 -2.7,-0.4 -3.4,0l0,0c-0.7,0.4 -1.4,1.9 -1.6,2.4l0,0c0,0.1 -3.9,10.3 -4.3,11.3c-0.6,1.7 -2.4,5.7 -3.3,7.3c-1.1,2.2 -2.1,3.7 -4.3,5.3c-2.6,2 -5.3,2.8 -6.7,3.2c-2.1,0.6 -4.8,1.2 -7,1.5c-0.6,0.1 -1.4,0.2 -2.2,0.3c-1.5,0.2 -3.3,0.4 -4.2,0.6l0,0c-2.2,0.5 -5.2,1.4 -5.2,1.4l-0.5,0.1zm-0.3,-34c0.3,0.5 0.6,1.1 0.7,1.6c0.2,0.7 0.3,1.2 0.3,1.9c0,0.1 0,0.2 0,0.3c0,0.4 0,25.3 0,29.3c1,-0.3 3.1,-0.8 5,-1.2c0.9,-0.2 2.7,-0.4 4.2,-0.6c0.8,-0.1 1.6,-0.2 2.2,-0.3c2.2,-0.3 4.8,-0.9 6.9,-1.5c1.3,-0.4 3.9,-1.2 6.4,-3.1l0,0c1,-0.7 1.7,-1.4 2.4,-2.2c0.6,-0.7 1.1,-1.6 1.7,-2.8l0,0c0.8,-1.6 2.6,-5.6 3.2,-7.2c0.4,-1 4.2,-11.1 4.3,-11.3c0.1,-0.1 0.8,-2.1 1.9,-2.8c0.7,-0.4 1.4,-0.6 2,-0.7c0.8,0 1.5,0.2 2.2,0.7c0.1,0.1 1.5,1.1 1.2,3c-0.2,1.3 -0.7,1.9 -1.1,2.5c-0.1,0.1 -0.1,0.2 -0.2,0.3c-0.1,0.1 -0.3,0.3 -0.4,0.5c-0.5,0.6 -1.2,1.4 -1.2,2.2c0,1.2 0.8,1.9 1.6,2.1c0.6,0.2 1.1,0.2 1.6,0.1c0.6,-0.1 1.1,-0.5 1.5,-1.1c0.9,-1.2 0.8,-2.5 0.8,-3.2l0,0c0,-0.8 -0.3,-2.7 -0.8,-3.9l0,0c-0.3,-0.7 -0.7,-1.5 -1.2,-2.1c-0.6,-0.8 -1.3,-1.3 -2.3,-1.6c-1,-0.3 -2.2,-0.5 -3.4,-0.4c-1,0 -2.1,0.1 -3,0.4c-1.6,0.4 -3.3,1.2 -4.4,1.9c-1.3,0.8 -2.9,2.2 -3.6,3c-1,1.1 -2.6,3.7 -3.8,6.9c-0.2,0.6 -0.5,1.2 -0.7,1.7c-0.4,1 -0.7,1.8 -0.9,2.3s-0.8,1.9 -1.3,3.2c-0.3,0.7 -0.5,1.4 -0.7,1.8c-0.5,1.2 -1.4,2.8 -2,3.7c-0.1,0.2 -0.2,0.3 -0.3,0.5c-0.8,1.4 -2.7,3.8 -3.6,4.3c-1.1,0.6 -1.9,1 -2.6,1.1s-1.3,-0.1 -1.8,-0.5s-0.8,-1.2 -0.9,-2.5c0,-0.6 0,-2.6 0.1,-4.5c0,-1.3 0.1,-2.5 0.1,-3c0,-0.7 0,-2.9 -0.1,-4.9c0,-1.8 0,-2.9 0,-3c0,-1.8 -0.1,-7.1 -0.3,-8.3l0,-0.1c-0.2,-0.9 -0.5,-2.2 -1.1,-2.3l-8.6,-0.2z" id="svg_5"/>
   <path class="st2" d="m66.8,79.1l-14.1,0l-0.1,-0.1c0,0 -0.4,-0.3 -1,-1.1c-1.1,-1.3 -2.9,-4.8 -3.7,-6.4c-0.1,-0.2 -0.2,-0.4 -0.3,-0.5c-0.7,-1.2 -2.9,-5.2 -3.1,-5.6c-2.5,-4.3 -5.8,-8.8 -8.3,-11.1c-3.5,-3.2 -6.2,-4.4 -6.7,-4.6l-0.1,0c-1,-0.4 -3.2,-1.3 -7.3,-0.9c-0.4,0.1 -0.7,0.1 -1.1,0.2c-0.5,0.5 -0.6,1 -0.6,1l0,0l0,0c-0.1,0.1 -0.1,0.3 -0.2,0.4c-0.1,0.4 -0.3,0.9 -0.6,1.4c0.2,0.2 1.1,1.1 1.6,1.6c0.2,0.2 0.5,0.5 0.9,0.9c0.7,0.7 1.7,1.7 2.2,2.4c0.9,1.1 1.8,2.7 1.8,2.7l0.2,0.4l-0.4,0.2c-0.2,0 -0.6,0.3 -1,0.5c-0.5,0.3 -1,0.6 -1.6,0.9c-0.8,0.4 -3.5,1.6 -6.5,2l0,0c-2.1,0.2 -5.4,-1.4 -7.6,-3c-1.6,-1.1 -2.9,-2.3 -3.1,-4.8c-0.1,-1.2 0,-2.4 0.2,-3.5c0.2,-1.3 0.7,-2.4 1.3,-3.5c1.1,-1.8 2,-3.1 4.4,-5c1.7,-1.3 3.2,-1.9 3.4,-2s1.5,-0.7 3.8,-1.2c2.2,-0.5 5.8,-1.1 10.1,-0.7l0,0c3.2,0.3 5.3,1.2 8.2,2.5c0.8,0.4 2.4,1.2 4.7,3.1c2.5,2.1 5,4.8 7.3,8c3,4.2 5.5,8.3 6.2,9.5c0,0.1 0.1,0.3 0.3,0.6c0.6,1.1 1.8,3.4 3.2,6c1.8,3.1 3.4,5.6 4.8,7.2l0,0c0.3,0.4 1.1,1.2 1.7,1.7l1.1,0.8zm-13.8,-0.8l11.7,0c-0.4,-0.4 -0.8,-0.8 -1,-1.1c-1.4,-1.6 -3.1,-4.1 -4.9,-7.3c-1.5,-2.6 -2.7,-4.9 -3.3,-6c-0.2,-0.3 -0.3,-0.5 -0.3,-0.6c-0.7,-1.2 -3.2,-5.3 -6.2,-9.5c-2.3,-3.2 -4.7,-5.8 -7.2,-7.9c-2.3,-1.9 -3.9,-2.8 -4.5,-3c-2.8,-1.3 -4.9,-2.1 -8,-2.4c-4.3,-0.3 -7.7,0.2 -9.9,0.7c-2.3,0.5 -3.7,1.2 -3.7,1.2l0,0l0,0c0,0 -1.6,0.6 -3.2,1.9c-2.3,1.9 -3.1,3.1 -4.2,4.8c-0.6,0.9 -1,2 -1.2,3.2c-0.2,1 -0.2,2.2 -0.2,3.3c0.2,2.1 1.3,3.1 2.8,4.2c2.1,1.5 5.2,3 7.1,2.9c2.9,-0.3 5.5,-1.6 6.2,-1.9c0.5,-0.3 1.1,-0.6 1.5,-0.8c0.3,-0.2 0.6,-0.3 0.7,-0.4c-0.3,-0.5 -0.9,-1.5 -1.5,-2.2s-1.5,-1.6 -2.2,-2.3c-0.4,-0.4 -0.7,-0.7 -0.9,-0.9c-0.4,-0.4 -1,-1.1 -1.4,-1.4c-0.1,0.3 -0.3,0.5 -0.4,0.8c-0.9,1.7 -2.5,3.3 -4.2,4.3c-1.3,0.8 -2.3,1.3 -3.9,1c-0.7,-0.1 -1.3,-0.5 -1.7,-1.2c-0.5,-0.7 -0.7,-1.6 -0.5,-2.3c0.3,-1.6 1.5,-2.5 2.8,-3.4c1,-0.7 2.6,-1.5 4.3,-2.1c1.5,-0.6 3.7,-1.3 6.2,-1.8l0,0c4.3,-0.5 6.6,0.5 7.7,0.9l0.1,0c0.5,0.2 3.4,1.5 6.9,4.8c2.5,2.4 5.9,6.9 8.4,11.3c0.2,0.4 2.5,4.4 3.1,5.6c0.1,0.1 0.2,0.3 0.3,0.5c0.8,1.5 2.6,5 3.6,6.3c0.7,0.4 1,0.7 1.1,0.8zm-33.1,-29.2c-1.5,0.4 -2.9,0.9 -3.9,1.3c-1.6,0.6 -3.2,1.4 -4.2,2.1c-1.5,1 -2.3,1.7 -2.5,2.9c-0.1,0.5 0.1,1.2 0.4,1.7c0.3,0.5 0.7,0.8 1.2,0.9c1.3,0.3 2.2,-0.2 3.3,-0.9c1.6,-0.9 3,-2.5 3.9,-4c0.7,-1.3 1.1,-2.2 1.3,-2.9c0.1,-0.2 0.1,-0.3 0.2,-0.4c0.1,-0.2 0.2,-0.4 0.3,-0.7z" id="svg_6"/>
   <path class="st2" d="m16.5,80.4c-0.5,0 -0.9,0 -1.1,0c-0.3,0 -0.4,-0.2 -0.5,-0.3c-0.2,-0.3 0,-0.7 0.4,-1.5c0.1,-0.1 0.2,-0.3 0.2,-0.4c0.5,-0.9 0.5,-1.8 0.5,-1.8l0,-13l0.8,0l0,13c0,0 0,1.1 -0.6,2.2c-0.1,0.2 -0.2,0.3 -0.2,0.4c-0.1,0.2 -0.2,0.4 -0.3,0.6c0.7,0 2.3,0 2.9,0l0,0l5.2,0c0.1,0 0.5,-0.1 1,-0.4c0.7,-0.4 1.2,-1.2 1.5,-2.1c0.1,-1.4 0,-4.5 0,-4.5l0,0l0,0l0.1,-9.4c0,0 0,-1.6 -0.8,-3l0.7,-0.4c0.9,1.6 0.9,3.3 0.9,3.4l-0.1,9.4c0,0.2 0,3.1 0,4.6l0,0l0,0c-0.4,1.5 -1.2,2.3 -1.8,2.7c-0.7,0.4 -1.3,0.5 -1.3,0.5l0,0l0,0l-5.2,0c-0.3,0 -1.5,0 -2.3,0z" id="svg_7"/>
   <path class="st2" d="m26.4,64.2c0,-2.5 -1.2,-3.9 -1.2,-4l0.6,-0.5c0.1,0.1 1.4,1.7 1.4,4.5l-0.8,0z" id="svg_8"/>
  </g>
  <g id="svg_9">
   <g id="svg_10">
    <path class="st1" d="m74.2,35.2c6.1,-3.3 6.1,-7.6 6.1,-8.2c0.1,-5 -4.3,-6.2 -5.1,-6.5c-4.9,-1.3 -9.3,0.8 -10.5,1.3c-6.8,3.6 -8.3,7.4 -9.1,8.8c-2.2,4.2 -2.4,10.4 -2.4,10.4c-1.1,1.2 -2,2.8 -2.2,3.2c-1.2,2.5 -1,3.3 -1.1,3.8c0.2,2.8 1.9,3.5 2.2,3.7c2.4,1 4.5,-0.2 4.5,-0.2c1.5,1.4 2.2,1.9 2.6,2.2c2.6,1.5 4.4,2 4.7,2.1c4.3,1.3 7.9,0.4 8.2,0.3c4.5,-1.3 6,-4.3 6.4,-4.9c2,-3.5 1.1,-5.7 1,-5.8c-1.1,-2.3 -3.5,-1.5 -3.9,-1.3c-1.8,0.8 -1.7,1.3 -1.9,1.9c-0.2,0.9 0.1,2.4 0.2,2.7c0,0 0.1,0.9 -0.1,1.1c-0.1,0.2 -0.5,0.6 -0.8,0.8c-1.6,1.5 -3.1,2 -5,1.7c-3.9,-0.7 -5.3,-4.7 -5.3,-4.7c-1.5,-3.5 -0.9,-6.8 -0.9,-7.4c9.4,-3 11.7,-4.6 12.4,-5zm-8.2,-5.3c0.3,-0.3 2.3,-2.1 5,-2.6l0,0c0,0 2,-0.4 1.9,1.1c0,0.5 -0.2,0.9 -0.6,1.5c-0.5,0.7 -1.1,1.3 -2,1.9c-1.1,0.7 -1.6,1 -2.1,1.3c-0.7,0.5 -3.9,1.8 -5.5,2.3c0,0 0.5,-3 3.3,-5.5z" id="svg_11"/>
   </g>
  </g>
  <path class="st2" d="m60.6,37.7l0,-0.4c0.3,-3.2 1.6,-5.3 1.9,-5.8l0,0c2,-2.8 3.6,-3.7 4.6,-4.3c0.1,-0.1 0.3,-0.2 0.4,-0.2l0,0l0,0c3.9,-1.8 5.3,-0.9 5.9,-0.6l0.1,0l0,0l0,0c0.7,0.7 1,1.6 0.9,2.6c-0.1,0.8 -0.6,1.5 -0.7,1.7c-0.9,1.6 -3.3,3 -3.5,3.1c-1.3,0.9 -3.3,1.8 -5.8,2.7c-1.9,0.7 -3.4,1.1 -3.5,1.1l-0.3,0.1zm2.5,-6c-0.3,0.5 -1.4,2.3 -1.8,5.2c1.4,-0.4 6.2,-1.9 8.8,-3.7l0,0c0,0 2.5,-1.4 3.3,-2.9l0,0l0,0c0.1,-0.2 0.5,-0.7 0.6,-1.5s-0.1,-1.5 -0.7,-2.1c0,0 0,0 -0.1,0c-0.5,-0.3 -1.7,-1.1 -5.3,0.6c-0.1,0.1 -0.2,0.1 -0.4,0.2c-1.1,0.7 -2.5,1.5 -4.4,4.2z" id="svg_12"/>
  <path class="st3" d="m59.2,52.7" id="svg_13"/>
  <path class="st2" d="m54.1,51.3c-0.2,0 -0.4,0 -0.7,0l0,0l0,0c-0.7,-0.2 -2.3,-0.7 -2.5,-3.3l0,0c0,-1.1 0.6,-2.5 1.7,-4.2c0.7,-1.1 1.5,-2 1.7,-2.3c0,-0.4 0,-1.8 0.3,-3.8s1,-5 2.4,-7.5c0.1,-0.1 1.1,-2 3.2,-4c1.3,-1.2 2.7,-2.2 4.2,-3c1.9,-1 4,-1.6 6.2,-1.9l0,0c0.1,0 0.1,0 0.2,0c0.6,-0.1 2.1,-0.2 3.7,0.2c2,0.5 3.5,1.5 4.4,3.2l0,0l0,0c0,0 0,0 0,0.1c0.1,0.4 0.5,1.4 0.4,2.7c-0.1,1.7 -0.9,3.2 -2.2,4.6l0,0c-0.7,0.6 -1.7,1.4 -3.2,2.3c-1.9,1.2 -4,2.2 -6.3,3c-0.5,0.2 -1.7,0.6 -2.8,1c-1.7,0.6 -3.5,1.2 -4,1.4c-0.4,0.1 -1.3,0.5 -2.4,1.4c-1.4,1.1 -2.4,2.5 -3.2,4.2c0,0.1 -0.1,0.5 0,1.3c0.3,1.3 1.1,2.5 1.8,3.3l0.2,0.2l-0.2,0.1c-0.1,0 -1.2,1 -2.9,1zm-0.6,-0.6c1.5,0.2 2.5,-0.4 2.9,-0.7c-0.7,-0.8 -1.5,-2 -1.8,-3.4c-0.2,-0.9 0,-1.4 0,-1.5l0,0l0,0c0.8,-1.8 1.9,-3.3 3.3,-4.4c1.1,-0.9 2.2,-1.3 2.5,-1.5c0.4,-0.2 2.2,-0.8 4,-1.4c1.2,-0.4 2.3,-0.8 2.8,-1c5.5,-2 8.4,-4.4 9.4,-5.3c1.3,-1.3 2,-2.7 2.1,-4.2c0.1,-1.2 -0.3,-2.1 -0.4,-2.5l0,0c-0.9,-1.5 -2.2,-2.5 -4,-2.9c-1.5,-0.3 -2.9,-0.2 -3.5,-0.2c-0.1,0 -0.2,0 -0.2,0c-2.2,0.3 -4.2,0.9 -6.1,1.8c-1.5,0.8 -2.9,1.7 -4.1,2.9c-2.1,2 -3.1,3.8 -3.1,3.9l0,0c-1.4,2.4 -2,5.3 -2.3,7.3c-0.3,2.2 -0.3,3.8 -0.3,3.8l0,0.1l-0.1,0.1c-0.2,0.2 -0.9,1.1 -1.7,2.3c-1,1.6 -1.6,3 -1.6,3.9c0.1,1 0.4,1.7 0.9,2.2c0.5,0.5 1,0.6 1.3,0.7z" id="svg_14"/>
  <path class="st2" d="m54.6,41.6l-0.3,-0.4c0,0 3.2,-2.6 6.6,-4.1l0.2,0.5c-3.4,1.5 -6.4,4 -6.5,4z" id="svg_15"/>
  <path class="st2" d="m68.8,55.7c-0.8,0 -1.6,-0.1 -2.4,-0.2l0,0c-1.4,-0.2 -2.8,-0.6 -4.1,-1.1c-1.1,-0.5 -2.1,-1 -3,-1.7c-1.6,-1.2 -2.5,-2.2 -2.6,-2.3l0.4,-0.3c0,0 0.9,1.1 2.5,2.2c0.9,0.7 1.9,1.2 2.9,1.7c1.3,0.6 2.6,0.9 3.9,1.1l0,0l0,0c1.1,0.2 2.4,0.2 3.5,0.1c2.3,-0.2 4.2,-1 5.6,-2.3c0.7,-0.7 1.3,-1.5 1.8,-2.3c0.8,-1.4 1.1,-2.7 0.9,-4c-0.2,-0.6 -0.5,-1.1 -1.7,-1l0,0c-0.4,0 -0.7,0.1 -1,0.3c-0.4,0.2 -0.6,0.6 -0.6,1.1c0,0.1 0,0.3 0.1,0.4c0.1,0.9 0.4,2.1 0,3.1l0,0c-0.2,0.4 -1,1.5 -2.4,2.3c-0.9,0.6 -2.2,1.1 -3.9,1.1c-0.4,0 -0.8,0 -1.3,-0.1l0,0l-0.1,0c-1,-0.3 -4.2,-1.2 -6.1,-5.4c-0.6,-1.3 -1.5,-4.2 -1,-8.7l0.5,0.1c-0.5,4.4 0.4,7.2 0.9,8.4c0.8,1.7 1.8,3 3.2,3.9c1.1,0.7 2.1,1 2.6,1.2l0.1,0c0.9,0.2 1.8,0.1 2.7,-0.1c0.7,-0.2 1.5,-0.5 2.1,-0.9c1.2,-0.7 2,-1.7 2.2,-2.1c0.3,-0.8 0.1,-2 0,-2.8c0,-0.2 -0.1,-0.3 -0.1,-0.5l0,0c-0.1,-1.1 0.7,-1.8 2,-1.9c1.7,-0.2 2.1,0.8 2.3,1.3l0,0l0,0c0.2,1.4 -0.1,2.9 -1,4.4c-0.5,0.8 -1.1,1.7 -1.9,2.4l0,0c-0.8,0.8 -1.8,1.4 -2.9,1.8c-0.9,0.3 -1.9,0.6 -3,0.7c-0.2,0.1 -0.7,0.1 -1.1,0.1z" id="svg_16"/>
  <g id="svg_17">
   <g id="svg_18">
    <path class="st1" d="m105,44.5c0,0 0,-3.6 -3.4,-6.6c0,0 -2.4,-2.4 -7,-4.2c0,0 4,-3 5.3,-6.2c0,0 1.8,-3.8 -1.4,-6.6c-0.6,-0.4 -2.6,-1.9 -7.4,-0.9c-0.9,0.2 -4.3,1 -6.4,3.7c-0.6,0.9 -1.6,2.3 -2.8,5.8c0,0 -1.4,0.7 -1.9,2.3c-0.1,0.5 -0.8,2.3 1.3,3.8c0.5,0.3 1.3,0.7 2.8,1.2c0,0 0.5,0.2 0.7,0.2c0.2,0.1 1.1,0.7 1.6,1.1c0.5,0.3 3.4,2 4.1,2.4s3.3,1.8 4.9,3c0.5,0.4 2.1,1.5 2,2.9c0,0.5 0,2.3 -1.2,4.3c-0.1,0.2 -1.1,2.1 -3.5,2.3c-0.3,0 -3.4,0.6 -5.8,-1.7c-0.2,-0.3 -1.4,-1.3 -1.1,-3.4c0,0 0.3,-1.4 0.7,-2.5c0.2,-0.6 0.7,-1.9 0.6,-2.6c-0.1,-0.5 -0.1,-1.2 -1.6,-1.6c-0.5,-0.1 -1.8,-0.5 -3,0.1c-0.3,0.3 -1.4,0.9 -1.7,3.3c-0.1,0.8 -0.2,2.9 0.2,4.6c0.2,0.5 0.6,2.6 3.4,4.8c0.5,0.3 2.1,1.7 5.8,2.4c1.8,0.2 3.7,0.5 7.3,-0.5c0.9,-0.3 3.8,-1.2 6,-4.5c0.1,-0.4 1.8,-3.2 1.5,-6.9zm-12.4,-14.5c-0.3,0.2 -0.9,0.7 -1.6,1c0,0 -0.6,0.3 -0.7,-0.6c0,-1.4 0.5,-2.7 1.4,-3.1c0.4,-0.2 1.4,-0.7 2.5,-0.6c0.2,0.1 1,0.3 0.5,1.1c-0.1,0.3 -0.9,1.4 -2.1,2.2z" id="svg_19"/>
   </g>
  </g>
  <g id="svg_20">
   <path class="st2" d="m81.4,32l-0.4,-0.3c0,0 0.4,-0.6 1.1,-0.7c0.5,-0.1 0.9,0.1 1.4,0.5l-0.3,0.4c-0.3,-0.3 -0.7,-0.4 -1,-0.4c-0.5,0.1 -0.8,0.5 -0.8,0.5z" id="svg_21"/>
   <path class="st2" d="m82.4,31.5c-0.3,0 -0.6,-0.2 -0.6,-0.5s0.2,-0.5 0.6,-0.5c0.3,0 0.6,0.2 0.6,0.5s-0.2,0.5 -0.6,0.5z" id="svg_22"/>
   <g id="svg_23">
    <g id="svg_24">
     <path class="st2" d="m85.7,36c-0.3,0 -0.7,0 -1.1,0l0,0l0,0c-0.2,-0.1 -1,-0.3 -1.8,-0.6c-1,-0.4 -1.7,-0.9 -2,-1.4c-0.2,-0.3 -0.2,-0.8 -0.1,-1.4c0.1,-0.4 0.3,-1.1 0.8,-1.6c0.2,-0.2 0.4,-0.3 0.6,-0.5s0.5,-0.3 0.6,-0.6c0,-0.1 0.1,-0.2 0.1,-0.3c0,-0.1 0.1,-0.1 0.1,-0.2c0.7,-2.2 1.5,-3.8 2.4,-5c0.8,-1 1.4,-1.4 1.9,-1.7l0.1,-0.1l0,0c2.2,-1.2 4.4,-1.9 6.4,-1.9c1.9,0 3.1,0.4 3.5,0.6l0,0c1,0.5 1.8,1.4 2.1,2.4c0.4,1.5 0,3.1 -0.6,4.1c-0.7,1.4 -1.9,2.9 -3.7,4.5c-1.3,1.2 -2.5,2 -2.5,2s-0.8,0.6 -2.2,1.1c-1.1,0.2 -2.7,0.6 -4.6,0.6zm-1,-0.5c2.3,0.2 4.2,-0.3 5.4,-0.8c1.3,-0.5 2.1,-1 2.1,-1s4.5,-3.1 6.1,-6.3l0,0c0.5,-0.9 0.9,-2.4 0.5,-3.7c-0.3,-0.9 -0.9,-1.6 -1.8,-2.1c-0.6,-0.3 -1.8,-0.6 -3.2,-0.5c-2,0 -4.1,0.7 -6.2,1.9l-0.1,0.1c-0.4,0.3 -1,0.7 -1.7,1.6c-0.9,1.1 -1.6,2.8 -2.3,4.9l0,0c0,0.1 0,0.1 -0.1,0.2c0,0.1 -0.1,0.3 -0.2,0.4c-0.2,0.5 -0.2,1.1 0.6,1.7c1,0.5 1.8,0.9 2.8,1c1,0.2 2.1,0 3.3,-0.4c-0.1,-0.1 -0.2,-0.1 -0.3,-0.2c-0.3,-0.3 -0.6,-0.7 -0.7,-1.3l0,0l0,0c-0.3,-2.7 0.8,-3.8 1.5,-4.5l0.1,-0.1l0,0l0,0c1.2,-1 2.4,-1.2 3.1,-1.2c0.9,0 1.7,0.2 2,0.4l0,0c0.6,0.5 0.9,1 1,1.6c0.1,1.2 -0.9,2.3 -1.7,3.1l0,0c-1.4,1.3 -2.3,2 -3.6,2.4l0,0c0,0 0,0 -0.1,0s-0.3,0.1 -0.4,0.1c-0.2,0 -0.3,0.1 -0.4,0.1c-0.2,0 -0.2,0 -0.4,0.1c-1,0.3 -1.8,0.5 -2.6,0.5c-1.5,0 -2.7,-0.5 -3.9,-1.2l0,0c-0.6,-0.4 -0.9,-0.9 -1,-1.4c-0.1,0 -0.1,0.1 -0.2,0.1c-0.2,0.1 -0.3,0.2 -0.5,0.4l0,0c-0.7,0.7 -0.8,2.1 -0.6,2.4l0,0l0,0c0.5,0.8 2.4,1.4 3.5,1.7zm4.7,-4.6c0.2,0.8 0.6,1.3 1.7,1.2c1.2,-0.4 2.1,-1 3.4,-2.3c0.3,-0.3 0.7,-0.7 1.1,-1.3c0.3,-0.5 0.5,-1 0.5,-1.4c0,-0.5 -0.3,-0.9 -0.8,-1.2c-0.3,-0.2 -0.9,-0.4 -1.7,-0.3c-0.7,0 -1.7,0.2 -2.8,1.1l-0.1,0.1c-0.7,0.6 -1.6,1.6 -1.3,4.1z" id="svg_25"/>
     <path class="st2" d="m92.7,55.8c-0.4,0 -0.7,0 -1.1,0c-1.8,-0.1 -3.2,-0.5 -3.9,-0.8l0,0c-2,-0.8 -3.6,-1.9 -4.7,-3.3c-0.9,-1.1 -1.1,-2.1 -1.2,-2.5c0,0 0,0 0,-0.1c-0.2,-0.9 -0.3,-2.2 -0.2,-3.6c0.2,-2 0.6,-2.7 0.9,-2.9c0.4,-0.4 0.9,-0.6 1.6,-0.6c0.6,0 1.2,0.2 1.4,0.3c0.7,0.2 0.6,0.6 0.6,0.9l0,0c0,0.3 0,0.6 -0.5,1.9l0,0c-1.6,3.7 -0.4,5.5 0,6.1l0,0c0.8,1.1 1.9,1.8 3.3,2.3c1.1,0.3 2,0.4 2.3,0.4l0.1,0l0,0c1.5,0.1 2.8,-0.3 3.8,-1c0.9,-0.6 1.3,-1.2 1.5,-1.5l0.1,-0.1c1.8,-2.6 1.5,-5.3 1.5,-5.6l0,0c0,-0.6 -0.4,-1.3 -1.1,-2c-0.5,-0.6 -1.2,-1.1 -1.4,-1.3l-0.1,-0.1c-1.9,-1.3 -5.7,-3.3 -5.8,-3.4c-1.4,-0.7 -2.5,-1.4 -3.5,-2c-0.9,-0.6 -1.6,-1 -2,-1.1l0.1,-0.5c0.5,0.1 1.1,0.5 2.2,1.1c0.9,0.6 2.1,1.3 3.4,2l0,0c0,0 3.9,2.1 5.9,3.4l0,0c0,0 0.1,0 0.1,0.1c0.3,0.2 0.9,0.7 1.5,1.3c0.7,0.8 1.1,1.6 1.2,2.3c0,0.3 0.1,1.2 -0.1,2.4c-0.2,1.3 -0.7,2.5 -1.5,3.5l0,0c0,0 0,0.1 -0.1,0.1c-0.2,0.3 -0.7,1 -1.7,1.6c-1.2,0.8 -2.5,1.1 -4.1,1c0,0 0,0 -0.1,0c-0.4,0 -1.3,0 -2.5,-0.4c-1.5,-0.5 -2.6,-1.3 -3.5,-2.5l0,0l0,0c-0.2,-0.4 -0.7,-1 -0.9,-2.1c-0.2,-1.3 0.1,-2.8 0.8,-4.5c0.4,-1.2 0.5,-1.5 0.5,-1.7l0,0c0,-0.3 0,-0.3 -0.3,-0.4c-1.2,-0.4 -2,-0.3 -2.4,0.2l0,0l0,0c-0.3,0.3 -0.6,1.3 -0.7,2.6s0,2.6 0.2,3.4c0,0 0,0 0,0.1c0.1,0.3 0.4,1.2 1.2,2.3c1,1.3 2.5,2.4 4.4,3.1c0.7,0.2 2,0.6 3.8,0.8c1.1,0.1 2.3,0 3.3,-0.1c1.3,-0.2 2.5,-0.6 3.7,-1.2l0,0c0.4,-0.2 1.2,-0.6 2.1,-1.5c1.1,-1.1 1.9,-2.5 2.4,-4.1l0,0l0,-0.1c0.9,-3.1 0.2,-5.4 -0.5,-6.7c0,0 -0.1,-0.1 -0.1,-0.2c-0.4,-0.7 -1.5,-2.6 -4.7,-4.5l0,0c-1.4,-0.9 -4.2,-2.1 -5.7,-2.6l0.2,-0.5c1.5,0.5 4.4,1.7 5.8,2.7c3.3,1.9 4.5,3.9 4.9,4.6c0,0.1 0.1,0.1 0.1,0.1l0,0c0.8,1.3 1.1,2.8 1,4.4c0,1.3 -0.3,2.3 -0.5,2.6l0,0.1c-0.5,1.7 -1.3,3.1 -2.5,4.3c-1,0.9 -1.9,1.4 -2.2,1.6l0,0c-1.2,0.6 -2.5,1.1 -3.8,1.3c-0.9,0.5 -1.7,0.6 -2.5,0.6z" id="svg_26"/>
    </g>
    <path class="st2" d="m90.5,39.1c-1.5,-0.8 -5.1,-3.2 -5.1,-3.2l0.1,-0.2c0,0 3.6,2.4 5.1,3.2l-0.1,0.2z" id="svg_27"/>
   </g>
  </g>
 </g>
</svg>