<?xml version="1.0" encoding="utf-8"?>
<!-- Generator: Adobe Illustrator 22.0.0, SVG Export Plug-In . SVG Version: 6.00 Build 0)  -->
<svg version="1.1" id="Layer_1" xmlns="http://www.w3.org/2000/svg" xmlns:xlink="http://www.w3.org/1999/xlink" x="0px" y="0px"
	 viewBox="0 0 100 100" style="enable-background:new 0 0 100 100;" xml:space="preserve">
<style type="text/css">
	.st0{fill:#095279;}
</style>
<g>
	<path class="st0" d="M88.9,73.6c2-1.9,3.3-4.7,3.3-7.7V27.3c0-5.9-4.8-10.7-10.7-10.7H18.3c-5.9,0-10.7,4.8-10.7,10.7v38.7
		c0,3,1.3,5.7,3.3,7.7H2c0,5.4,4.4,9.8,9.8,9.8h76.3c2.7,0,5.2-1.1,7-2.9c1.8-1.8,2.9-4.2,2.9-7H88.9z M14.9,26
		c0-1.5,1.2-2.6,2.6-2.6h64.6c1.5,0,2.6,1.2,2.6,2.6V68c0,1.4-1.2,2.6-2.6,2.6H17.5c-1.4,0-2.6-1.2-2.6-2.6V26z"/>
	<path class="st0" d="M49.5,54.5l-4.9,4.6c-1.2,1.1-3.3,0.4-3.4-1.1L40.2,35c-0.1-1.3,1.6-2,2.7-1.2l19.5,14.7c1.3,1,0.7,2.9-1,3.1
		l-7.2,0.9l4.6,8.6c0.6,1.1-0.1,2.5-1.1,3c0,0-2.1,1.2-3.3-1C52.2,59.4,51.6,58.3,49.5,54.5z"/>
</g>
</svg>
