<?xml version="1.0" encoding="utf-8"?>
<!-- Generator: Adobe Illustrator 22.0.0, SVG Export Plug-In . SVG Version: 6.00 Build 0)  -->
<svg version="1.1" id="Layer_1" xmlns="http://www.w3.org/2000/svg" xmlns:xlink="http://www.w3.org/1999/xlink" x="0px" y="0px"
	 viewBox="0 0 100 100" style="enable-background:new 0 0 100 100;" xml:space="preserve">
<style type="text/css">
	.st0{fill:#FFFFFF;}
</style>
<g>
	<path class="st0" d="M49.8,86c10.1,0,20.3,0.2,30.4-0.2c1.9-0.1,4.9-1.9,5.4-3.5c2-6.8-0.3-12.5-6.5-16.2c-3.7-2.2-7.7-4-11.8-5.1
		c-2.1-0.6-5.2,0.1-7.1,1.3c-6.9,4.7-13.8,5.1-20.2,0c-2.5-2-4.8-2.7-7.7-1.4c-3.2,1.4-6.5,2.5-9.6,4c-6.2,3.1-9.4,7.9-8.8,15.2
		c0.3,4.2,1.8,6,6.1,5.9C29.8,85.9,39.8,86,49.8,86z"/>
	<path class="st0" d="M65.9,30.2c0.1-8.7-7-16-15.7-16.2c-8.7-0.2-16.1,6.8-16.3,15.5c-0.2,8.9,7,16.4,15.9,16.4
		C58.5,46,65.8,38.9,65.9,30.2z"/>
	<path d="M49.8,86c-10,0-20-0.1-29.9,0c-4.2,0.1-5.7-1.7-6.1-5.9c-0.6-7.3,2.6-12.1,8.8-15.2c3.1-1.5,6.4-2.6,9.6-4
		c2.9-1.3,5.2-0.6,7.7,1.4c6.4,5.1,13.4,4.7,20.2,0c1.8-1.3,4.9-1.9,7.1-1.3c4.1,1.1,8.2,2.9,11.8,5.1c6.3,3.8,8.6,9.4,6.5,16.2
		c-0.5,1.6-3.5,3.5-5.4,3.5C70,86.2,59.9,86,49.8,86z"/>
	<path d="M65.9,30.2C65.8,38.9,58.5,46,49.8,46c-8.9,0-16.1-7.6-15.9-16.4c0.2-8.7,7.6-15.7,16.3-15.5C58.9,14.1,66,21.5,65.9,30.2z
		"/>
</g>
</svg>
